<?xml version="1.0" standalone="no"?>
<!DOCTYPE svg PUBLIC "-//W3C//DTD SVG 20010904//EN"
 "http://www.w3.org/TR/2001/REC-SVG-20010904/DTD/svg10.dtd">
<svg version="1.0" xmlns="http://www.w3.org/2000/svg"
 width="500.000000pt" height="500.000000pt" viewBox="0 0 500.000000 500.000000"
 preserveAspectRatio="xMidYMid meet">

<g transform="translate(0.000000,500.000000) scale(0.100000,-0.100000)"
fill="#000000" stroke="none">
<path d="M1362 3283 c3 -26 7 -28 68 -35 44 -5 69 -13 77 -25 10 -12 13 -75
13 -235 l0 -219 93 3 92 3 3 221 c2 175 5 224 16 233 8 7 43 15 78 19 59 7 63
9 66 35 l3 27 -256 0 -256 0 3 -27z"/>
<path d="M2782 3283 c3 -26 7 -28 68 -36 36 -4 70 -12 75 -18 6 -6 11 -103 13
-235 l3 -225 90 3 91 3 1 218 c2 265 -6 251 139 244 156 -7 233 -55 279 -177
26 -69 26 -189 -1 -248 l-19 -43 92 3 92 3 25 50 c35 71 36 188 0 260 -47 98
-154 175 -286 210 -46 12 -123 15 -362 15 l-303 0 3 -27z"/>
<path d="M1520 2590 l0 -80 35 0 c19 0 35 5 35 10 0 6 -11 10 -25 10 -24 0
-25 2 -25 70 0 40 -4 70 -10 70 -6 0 -10 -33 -10 -80z"/>
<path d="M1680 2590 c0 -47 4 -80 10 -80 6 0 10 33 10 80 0 47 -4 80 -10 80
-6 0 -10 -33 -10 -80z"/>
<path d="M1815 2645 c-50 -49 -15 -135 55 -135 19 0 40 9 55 25 50 49 15 135
-55 135 -19 0 -40 -9 -55 -25z m99 -11 c9 -8 16 -28 16 -44 0 -36 -24 -60 -60
-60 -36 0 -60 24 -60 60 0 36 24 60 60 60 16 0 36 -7 44 -16z"/>
<path d="M2129 2618 l0 -53 -22 29 c-60 79 -56 80 -55 -9 1 -80 1 -80 7 -20
l6 59 39 -57 c22 -31 41 -57 43 -57 1 0 3 36 3 80 0 47 -4 80 -10 80 -5 0 -10
-24 -11 -52z"/>
<path d="M2404 2655 c-4 -8 -4 -24 -1 -35 3 -10 -1 -24 -9 -31 -8 -6 -14 -24
-14 -40 0 -23 6 -30 27 -35 14 -4 34 -2 44 4 12 8 20 8 24 2 11 -18 27 -11 17
6 -5 9 -7 26 -4 38 5 18 3 19 -11 8 -13 -11 -17 -10 -27 7 -8 15 -7 26 1 39 7
11 9 27 6 36 -8 20 -46 21 -53 1z m46 -15 c0 -4 -6 -13 -14 -19 -17 -14 -31 2
-22 24 5 15 36 10 36 -5z m-12 -70 c15 -25 8 -40 -18 -40 -25 0 -33 15 -20 40
14 25 22 25 38 0z"/>
<path d="M2730 2590 c0 -47 4 -80 10 -80 6 0 10 14 10 30 0 17 4 30 9 30 5 0
19 -13 31 -30 12 -16 26 -30 31 -30 6 0 1 14 -12 31 l-21 30 21 15 c43 31 15
84 -45 84 l-34 0 0 -80z m75 30 c0 -20 -6 -26 -27 -28 -25 -3 -28 0 -28 28 0
28 3 31 28 28 21 -2 27 -8 27 -28z"/>
<path d="M2936 2639 c-29 -34 -32 -50 -14 -82 28 -53 89 -63 128 -22 33 35 31
81 -4 112 -38 33 -78 30 -110 -8z m108 -11 c21 -29 20 -51 -2 -78 -36 -44
-112 -15 -112 43 0 54 83 79 114 35z"/>
<path d="M3192 2650 c-30 -28 -36 -62 -18 -98 16 -31 34 -42 70 -42 25 0 66
26 66 42 0 6 -9 3 -20 -7 -41 -37 -110 -9 -110 45 0 52 68 80 105 44 9 -9 19
-13 23 -9 12 11 -38 45 -67 45 -15 0 -37 -9 -49 -20z"/>
<path d="M3400 2590 c0 -47 4 -80 10 -80 6 0 10 17 10 37 l0 38 25 -38 c14
-20 30 -37 36 -37 5 0 -3 18 -17 40 l-27 41 20 27 c30 41 35 52 25 52 -5 0
-21 -17 -35 -37 l-27 -38 0 38 c0 20 -4 37 -10 37 -6 0 -10 -33 -10 -80z"/>
<path d="M1520 2215 c0 -104 -4 -195 -10 -205 -6 -11 -26 -21 -52 -25 -97 -14
-99 -15 -96 -41 l3 -24 486 -4 486 -4 12 54 c7 30 32 108 56 172 23 64 41 120
38 125 -2 4 -20 7 -39 7 -24 0 -36 -5 -41 -17 -45 -133 -113 -210 -209 -240
-76 -23 -401 -27 -427 -4 -14 11 -17 41 -19 200 l-3 186 -92 3 -93 3 0 -186z"/>
<path d="M2940 2215 c0 -104 -4 -195 -10 -205 -6 -11 -26 -21 -52 -25 -97 -14
-99 -15 -96 -42 l3 -24 250 0 250 0 3 24 c3 27 1 28 -95 42 -23 4 -47 12 -52
19 -6 7 -12 90 -13 202 l-3 189 -92 3 -93 3 0 -186z"/>
<path d="M3396 2388 c54 -93 254 -375 279 -395 55 -44 121 -64 248 -75 97 -8
121 -7 128 4 17 26 10 48 -18 53 -88 19 -117 31 -159 68 -42 37 -152 178 -242
310 l-33 47 -105 0 c-81 0 -104 -3 -98 -12z"/>
</g>
</svg>
